<svg width="101" height="101" viewBox="0 0 101 101" fill="none" xmlns="http://www.w3.org/2000/svg">
<g clip-path="url(#clip0)">
<path d="M91.1394 88.2947H9.88943C4.7117 88.2947 0.514435 84.0974 0.514435 78.9197V22.6697C0.514435 17.4919 4.7117 13.2947 9.88943 13.2947H91.1394C96.3172 13.2947 100.514 17.4919 100.514 22.6697V78.9197C100.514 84.0974 96.3172 88.2947 91.1394 88.2947ZM22.3894 24.2322C16.3488 24.2322 11.4519 29.1291 11.4519 35.1697C11.4519 41.2103 16.3488 46.1072 22.3894 46.1072C28.4301 46.1072 33.3269 41.2103 33.3269 35.1697C33.3269 29.1291 28.4301 24.2322 22.3894 24.2322ZM13.0144 75.7947H88.0144V53.9197L70.9217 36.8269C70.0064 35.9117 68.5224 35.9117 67.607 36.8269L41.1394 63.2947L30.2967 52.4519C29.3814 51.5367 27.8974 51.5367 26.982 52.4519L13.0144 66.4197V75.7947Z" fill="#CCCCCC"/>
</g>
<defs>
<clipPath id="clip0">
<rect width="100" height="100" fill="white" transform="translate(0.514435 0.794678)"/>
</clipPath>
</defs>
</svg>
