<svg width="30" height="30" viewBox="0 0 30 30" fill="none" xmlns="http://www.w3.org/2000/svg">
<g clip-path="url(#clip0)">
<path d="M29.1736 8.32544L26.4724 11.0266C26.197 11.302 25.7517 11.302 25.4763 11.0266L18.9724 4.52271C18.697 4.24731 18.697 3.802 18.9724 3.52661L21.6736 0.825439C22.7693 -0.270264 24.5506 -0.270264 25.6521 0.825439L29.1736 4.34692C30.2752 5.44263 30.2752 7.22388 29.1736 8.32544ZM16.6521 5.84692L1.2654 21.2336L0.0232088 28.3528C-0.146713 29.3137 0.691178 30.1458 1.65212 29.9817L8.77126 28.7336L24.158 13.3469C24.4334 13.0715 24.4334 12.6262 24.158 12.3508L17.6541 5.84692C17.3728 5.57153 16.9275 5.57153 16.6521 5.84692V5.84692ZM7.27126 19.9153C6.94899 19.593 6.94899 19.0774 7.27126 18.7551L16.2947 9.73169C16.617 9.40942 17.1326 9.40942 17.4548 9.73169C17.7771 10.054 17.7771 10.5696 17.4548 10.8918L8.43141 19.9153C8.10915 20.2375 7.59352 20.2375 7.27126 19.9153V19.9153ZM5.15602 24.843H7.96852V26.97L4.18922 27.6321L2.36696 25.8098L3.02907 22.0305H5.15602V24.843Z" fill="black"/>
</g>
<defs>
<clipPath id="clip0">
<rect width="30" height="30" fill="white"/>
</clipPath>
</defs>
</svg>
