<svg width="31" height="31" viewBox="0 0 31 31" fill="none" xmlns="http://www.w3.org/2000/svg">
<g clip-path="url(#clip0)">
<path d="M27.1995 2.42237H20.1682L19.6174 1.32667C19.5008 1.09242 19.321 0.895375 19.0985 0.757701C18.8759 0.620026 18.6194 0.547186 18.3577 0.547374H11.6604C11.3993 0.54637 11.1432 0.618939 10.9214 0.756766C10.6997 0.894594 10.5212 1.0921 10.4065 1.32667L9.85571 2.42237H2.82446C2.57582 2.42237 2.33737 2.52115 2.16155 2.69696C1.98573 2.87278 1.88696 3.11123 1.88696 3.35987L1.88696 5.23487C1.88696 5.48351 1.98573 5.72197 2.16155 5.89779C2.33737 6.0736 2.57582 6.17237 2.82446 6.17237H27.1995C27.4481 6.17237 27.6866 6.0736 27.8624 5.89779C28.0382 5.72197 28.137 5.48351 28.137 5.23487V3.35987C28.137 3.11123 28.0382 2.87278 27.8624 2.69696C27.6866 2.52115 27.4481 2.42237 27.1995 2.42237ZM5.00415 27.9107C5.04886 28.6247 5.36401 29.2948 5.88543 29.7847C6.40686 30.2745 7.09536 30.5473 7.81079 30.5474H22.2131C22.9286 30.5473 23.6171 30.2745 24.1385 29.7847C24.6599 29.2948 24.9751 28.6247 25.0198 27.9107L26.262 8.04737H3.76196L5.00415 27.9107Z" fill="black"/>
</g>
<defs>
<clipPath id="clip0">
<rect width="30" height="30" fill="white" transform="translate(0.0119629 0.547363)"/>
</clipPath>
</defs>
</svg>
